<svg xmlns="http://www.w3.org/2000/svg" xmlns:xlink="http://www.w3.org/1999/xlink" viewBox="0 0 225.02 85.35"><defs><style>.cls-1{fill:none;}.cls-2{filter:url(#filter);}.cls-3{fill:#c05454;}.cls-4{fill:#fff;}.cls-5{fill:#020202;}</style><filter id="filter"><feOffset input="SourceAlpha"/><feGaussianBlur stdDeviation="2.58" result="blur"/><feFlood/><feComposite operator="in" in2="blur"/><feComposite in="SourceGraphic"/></filter></defs><g id="Camada_2" data-name="Camada 2"><g id="Camada_1-2" data-name="Camada 1"><rect class="cls-1" width="225.02" height="85.35"/><g class="cls-2"><path class="cls-3" d="M20.75,74.06a12.61,12.61,0,0,1-12.6-12.6V40a12.61,12.61,0,0,1,12.6-12.6H35.08V40.76H24.33a2.21,2.21,0,1,0,0,4.42H35.08V55.5H24.33a2.22,2.22,0,0,0-2.22,2.21v.77a2.23,2.23,0,0,0,2.22,2.21H35.08V74.06Z"/><path class="cls-4" d="M34.58,27.89V40.26H24.33a2.71,2.71,0,1,0,0,5.42H34.58V55H24.33a2.71,2.71,0,0,0-2.72,2.71v.77a2.72,2.72,0,0,0,2.72,2.71H34.58V73.56H20.75a12.1,12.1,0,0,1-12.1-12.1V40a12.1,12.1,0,0,1,12.1-12.1H34.58m1-1H20.75A13.11,13.11,0,0,0,7.65,40V61.46a13.12,13.12,0,0,0,13.1,13.1H35.58V60.19H24.33a1.72,1.72,0,0,1-1.72-1.71v-.77A1.71,1.71,0,0,1,24.33,56H35.58V44.68H24.33a1.71,1.71,0,1,1,0-3.42H35.58V26.89Z"/><path class="cls-5" d="M51.72,55.5l-4.16-9.14V39.71h1.76a1.28,1.28,0,0,0,0-2.55H47.07V55.5h-7.2V30.83H52.05a6,6,0,0,1,5.88,5.43h0v2.3a6.48,6.48,0,0,1-3.5,5.67L60,55.5Z"/><path class="cls-4" d="M52.05,31.33a5.5,5.5,0,0,1,5.41,5.58v1.65A6.18,6.18,0,0,1,53.79,44l5.39,11H52l-4-8.75v-6h1.26A1.74,1.74,0,0,0,51,38.44h0a1.75,1.75,0,0,0-1.72-1.78H46.56V55H40.37V31.33H52.05m5.41,4.93v0m-5.41-5.93H39.37V56h8.19V47.59l3.57,7.82.26.59h9.4l-.71-1.44-5-10.14a6.89,6.89,0,0,0,3.35-5.86v-2.3h0a6.48,6.48,0,0,0-6.38-5.93Zm-4.49,7.33h1.76a.78.78,0,0,1,0,1.55H47.56V37.66Z"/><path class="cls-5" d="M133.85,55.5l-4.16-9.14V39.71h1.76a1.28,1.28,0,0,0,0-2.55H129.2V55.5H122V30.83h12.19a6,6,0,0,1,5.87,5.43h0v2.3a6.48,6.48,0,0,1-3.5,5.67l5.53,11.27Z"/><path class="cls-4" d="M134.19,31.33a5.49,5.49,0,0,1,5.4,5.58v1.65A6.18,6.18,0,0,1,135.92,44l5.39,11h-7.14l-4-8.75v-6h1.26a1.74,1.74,0,0,0,1.72-1.77h0a1.75,1.75,0,0,0-1.72-1.78H128.7V55h-6.2V31.33h11.69m5.4,4.93v0m-5.4-5.93H121.5V56h8.2V47.59l3.56,7.82.27.59h9.39l-.71-1.44-5-10.14a6.87,6.87,0,0,0,3.35-5.86v-2.3h0a6.48,6.48,0,0,0-6.37-5.93Zm-4.49,7.33h1.75a.78.78,0,0,1,0,1.55H129.7V37.66Z"/><rect class="cls-5" x="60.76" y="30.83" width="7" height="24.67"/><path class="cls-4" d="M67.26,31.33V55h-6V31.33h6m1-1h-8V56h8V30.33Z"/><path class="cls-5" d="M89.67,55.5v-16a.43.43,0,1,0-.86,0v16H80.75v-16a.44.44,0,0,0-.43-.44.44.44,0,0,0-.44.44v16H72.24V37.36A6.45,6.45,0,0,1,84.73,35l0,.15a.29.29,0,0,0,0-.09,6.44,6.44,0,0,1,12.51,2.26V55.5Z"/><path class="cls-4" d="M90.86,31.33a6,6,0,0,1,6,6V55H90.17V39.53a.93.93,0,1,0-1.86,0V55H81.25V39.53a.94.94,0,1,0-1.87,0V55H72.74V37.36a5.95,5.95,0,0,1,11.53-2.14s.14.64.51.64.51-.64.51-.64a6,6,0,0,1,5.57-3.89m0-1A7,7,0,0,0,84.78,34a6.94,6.94,0,0,0-13,3.41V56H97.81V37.36a7,7,0,0,0-7-7Z"/><path class="cls-5" d="M110.92,55.5V38.34a1.26,1.26,0,1,0-2.51,0v3.53h2l.09,6.82h-2.08V55.5h-8.09V40.42a9.3,9.3,0,1,1,18.6,0V55.5Z"/><path class="cls-4" d="M109.64,31.33a9,9,0,0,1,8.8,9.09V55h-7V38.34a1.79,1.79,0,0,0-1.76-1.81h0a1.78,1.78,0,0,0-1.74,1.81v4h2l.07,5.82h-2.07V55h-7.09V40.42a9,9,0,0,1,8.8-9.09h0m0-1a10,10,0,0,0-9.8,10.09V56h9.09V49.19h1.5V56h9V40.42a10,10,0,0,0-9.8-10.09Zm-.73,11v-3a.76.76,0,1,1,1.51,0v3h-1.51Z"/><path class="cls-5" d="M180.92,78.23c-15.58,0-33.68-15.49-33.68-35.46A35.9,35.9,0,0,1,183.32,7.12a32,32,0,0,1,26.33,13.19l.29.4-.4.3c-4.1,3.07-8.07,5.7-11.91,8.24-2.13,1.41-4.15,2.75-6.12,4.11l-.35.24-.29-.31a12.49,12.49,0,0,0-9.14-4.07c-7,0-12.26,5.5-12.26,12.78,0,8.62,6.18,13.78,12.16,13.78,8.14,0,13-4.87,13-13a14,14,0,0,0-1.42-6.09l-.2-.4.38-.24c2.42-1.5,5.5-3.56,8.48-5.55,3.43-2.29,7-4.66,9.67-6.29l.44-.27.26.46a39.6,39.6,0,0,1,4.63,18.82C216.87,62.52,200.74,78.23,180.92,78.23Z"/><path class="cls-4" d="M183.32,7.62a31.57,31.57,0,0,1,25.92,13c-6.34,4.75-12.46,8.5-18,12.34a13,13,0,0,0-9.5-4.23C174.27,28.72,169,34.55,169,42s5.2,14.28,12.66,14.28c9.37,0,13.5-6.05,13.5-13.51a14.38,14.38,0,0,0-1.47-6.31c5.17-3.22,13.08-8.77,18.14-11.83a38.92,38.92,0,0,1,4.57,18.58c0,19.57-16.36,34.52-35.45,34.52-15.34,0-33.18-15.39-33.18-35A35.32,35.32,0,0,1,183.32,7.62m0-1c-20.17,0-36.58,16.22-36.58,36.15,0,20.25,18.37,36,34.18,36,20.1,0,36.45-15.93,36.45-35.52a40,40,0,0,0-4.7-19.06l-.5-.92-.89.54c-2.71,1.64-6.25,4-9.68,6.3-3,2-6.06,4-8.47,5.54l-.77.48.4.81a13.37,13.37,0,0,1,1.37,5.87c0,3.76-1.21,12.51-12.5,12.51-5.73,0-11.66-5-11.66-13.28,0-7.11,4.95-12.28,11.76-12.28a12,12,0,0,1,8.77,3.91l.59.63.71-.49c2-1.36,4-2.69,6.1-4.1,3.85-2.55,7.83-5.18,11.94-8.26l.8-.59-.59-.8a32.44,32.44,0,0,0-26.73-13.4Z"/><path class="cls-3" d="M41.45,66.38c0-1.06,0-1.47,0-1.72h1.23c0,.17,0,.5.05.7a1.7,1.7,0,0,1,1.54-.81,1.37,1.37,0,0,1,1.4.89,1.85,1.85,0,0,1,1.66-.89c.9,0,1.73.48,1.73,1.92v3.74H47.79V66.68c0-.56-.19-1.07-.87-1.07s-1,.56-1,1.41v3.19H44.63V66.63c0-.56-.25-1-.86-1s-1.06.46-1.06,1.48v3.12H41.45Z"/><path class="cls-3" d="M51.76,69.67v2.7H50.49v-6.1c0-.75,0-1.26,0-1.61h1.24c0,.18,0,.5,0,.78a1.68,1.68,0,0,1,1.64-.89c1.17,0,2.09.91,2.09,2.81s-1,2.94-2.34,2.94A1.47,1.47,0,0,1,51.76,69.67Zm2.43-2.28c0-1.24-.49-1.79-1.23-1.79-1,0-1.26.59-1.26,1.85s.24,1.82,1.21,1.82S54.19,68.61,54.19,67.39Z"/><path class="cls-3" d="M56.59,66.54c0-.9,0-1.54,0-1.88h1.25c0,.24,0,.6,0,1a1.76,1.76,0,0,1,1.72-1.12v1.3c-1.18,0-1.7.51-1.7,1.76v2.59H56.59Z"/><path class="cls-3" d="M61.37,67.71c0,.83.33,1.59,1.2,1.59a1,1,0,0,0,1.06-.75h1.25a2.25,2.25,0,0,1-2.35,1.76c-1.76,0-2.45-1.26-2.45-2.88,0-1.37.68-2.88,2.51-2.88S65,65.89,65,67.27c0,.06,0,.37,0,.44Zm2.34-.85c0-.74-.32-1.34-1.14-1.34s-1.15.78-1.18,1.34Z"/><path class="cls-3" d="M67.06,67.71c0,.83.33,1.59,1.21,1.59a1,1,0,0,0,1-.75h1.25a2.25,2.25,0,0,1-2.35,1.76c-1.76,0-2.45-1.26-2.45-2.88,0-1.37.69-2.88,2.51-2.88s2.37,1.34,2.37,2.72c0,.06,0,.37,0,.44Zm2.34-.85c0-.74-.32-1.34-1.14-1.34s-1.14.78-1.18,1.34Z"/><path class="cls-3" d="M71.74,66.39c0-1.15,0-1.49,0-1.73H73a5.15,5.15,0,0,1,0,.77,1.68,1.68,0,0,1,1.58-.88c1.12,0,1.76.69,1.76,2v3.62H75.06V66.82c0-.69-.19-1.21-.93-1.21S73,66.12,73,67.15v3.06H71.74Z"/><path class="cls-3" d="M82.42,62.35V68.7c0,.61,0,1.18,0,1.51H81.2c0-.15,0-.48,0-.71a1.52,1.52,0,0,1-1.59.82c-1.42,0-2.15-1.18-2.15-2.88s.87-2.89,2.37-2.89c.85,0,1.23.31,1.36.56V62.35Zm-3.7,5.05c0,1.14.43,1.87,1.25,1.87,1,0,1.24-.73,1.24-1.89S80.9,65.6,80,65.6,78.72,66.22,78.72,67.4Z"/><path class="cls-3" d="M83.9,62.35h1.28v1.29H83.9Zm0,2.31h1.28v5.55H83.9Z"/><path class="cls-3" d="M86.63,66.38c0-1.06,0-1.47,0-1.72h1.24c0,.17,0,.5,0,.7a1.7,1.7,0,0,1,1.55-.81,1.38,1.38,0,0,1,1.4.89,1.82,1.82,0,0,1,1.65-.89c.91,0,1.74.48,1.74,1.92v3.74H93V66.68c0-.56-.2-1.07-.87-1.07s-1,.56-1,1.41v3.19H89.81V66.63c0-.56-.25-1-.87-1s-1.06.46-1.06,1.48v3.12H86.63Z"/><path class="cls-3" d="M96.61,67.71c0,.83.33,1.59,1.21,1.59a1,1,0,0,0,1.06-.75h1.25a2.25,2.25,0,0,1-2.35,1.76c-1.77,0-2.45-1.26-2.45-2.88,0-1.37.68-2.88,2.51-2.88s2.36,1.34,2.36,2.72c0,.06,0,.37,0,.44ZM99,66.86c0-.74-.32-1.34-1.15-1.34s-1.14.78-1.17,1.34Z"/><path class="cls-3" d="M101.29,66.39c0-1.15,0-1.49,0-1.73h1.24a6.55,6.55,0,0,1,0,.77,1.67,1.67,0,0,1,1.58-.88c1.12,0,1.76.69,1.76,2v3.62h-1.28V66.82c0-.69-.2-1.21-.93-1.21s-1.12.51-1.12,1.54v3.06h-1.28Z"/><path class="cls-3" d="M106.65,64.66h.82V63.11h1.27v1.55h1v1h-1v3.06c0,.41.1.58.56.58a2.19,2.19,0,0,0,.36,0v.9a2.88,2.88,0,0,1-.83.1c-1,0-1.36-.39-1.36-1.38V65.66h-.82Z"/><path class="cls-3" d="M115.39,67.35c0,1.62-.75,3-2.6,3s-2.54-1.42-2.54-2.93a2.58,2.58,0,0,1,2.62-2.83C114.58,64.55,115.39,65.81,115.39,67.35Zm-3.84,0c0,1.22.44,2,1.3,2s1.25-.72,1.25-1.94-.42-1.8-1.29-1.8S111.55,66.27,111.55,67.35Z"/><path class="cls-3" d="M117.31,68.54a1,1,0,0,0,1,.83c.6,0,.88-.27.88-.66s-.33-.6-1.2-.84c-1.44-.4-1.79-.91-1.79-1.69s.46-1.63,2-1.63,2,.75,2.08,1.66h-1.24a.8.8,0,0,0-.9-.72c-.47,0-.72.21-.72.58s.22.5,1.06.72c1.48.39,1.94.92,1.94,1.8,0,1.1-.91,1.72-2.18,1.72s-2.15-.59-2.26-1.77Z"/><path class="cls-3" d="M121,71.48a8.63,8.63,0,0,0,.69-2.91h1.22a5.93,5.93,0,0,1-.91,2.91Z"/><path class="cls-3" d="M126.7,62.79H128v6.34h3.4l-.15,1.08H126.7Z"/><path class="cls-3" d="M136.93,62.35V68.7c0,.61,0,1.18,0,1.51h-1.24a6.85,6.85,0,0,1,0-.71,1.53,1.53,0,0,1-1.59.82c-1.43,0-2.15-1.18-2.15-2.88s.87-2.89,2.37-2.89c.85,0,1.23.31,1.36.56V62.35Zm-3.7,5.05c0,1.14.43,1.87,1.25,1.87,1,0,1.24-.73,1.24-1.89s-.31-1.78-1.19-1.78S133.23,66.22,133.23,67.4Z"/><path class="cls-3" d="M142.59,68.84a12.3,12.3,0,0,0,.08,1.37h-1.13a4.93,4.93,0,0,1-.08-.73,1.88,1.88,0,0,1-3.43-.86c0-1,.64-1.81,2.59-1.81h.72v-.45c0-.48-.14-.89-.89-.89a.84.84,0,0,0-1,.82h-1.23c.07-.9.59-1.74,2.22-1.74,1.26,0,2.12.46,2.12,1.79Zm-1.21-1.19h-.74c-1.12,0-1.33.45-1.33.87a.77.77,0,0,0,.87.8c.94,0,1.2-.63,1.2-1.55Z"/></g></g></g></svg>