<svg xmlns="http://www.w3.org/2000/svg" viewBox="0 0 672.29 224.4"><defs><style>.cls-1,.cls-6{fill:#00c63d;}.cls-2{font-size:69.3px;}.cls-2,.cls-4{fill:#fff;}.cls-2,.cls-3{font-family:Helvetica-Bold, Helvetica;font-weight:700;}.cls-3{font-size:22.1px;fill:#020202;}.cls-4,.cls-6{fill-rule:evenodd;}.cls-5{fill:#dadada;}</style></defs><g id="Camada_2" data-name="Camada 2"><g id="Camada_1-2" data-name="Camada 1"><rect class="cls-1" x="113.56" y="38.99" width="558.73" height="146.42" rx="73.21"/><text class="cls-2" transform="translate(255.44 120.31)">Whatsapp</text><text class="cls-3" transform="translate(270.89 153.05)">clique para conversar</text><path class="cls-4" d="M115,221.4l-2,0a109.34,109.34,0,0,1-50.93-13.63L6.71,221.23a2.88,2.88,0,0,1-.71.09,3,3,0,0,1-2.88-3.85l15.69-53.54A109.27,109.27,0,0,1,114.93,3l2,0a109.15,109.15,0,0,1,74.46,187.09A108.46,108.46,0,0,1,115,221.4Z"/><path class="cls-5" d="M114.93,6l1.91,0A106.2,106.2,0,0,1,115,218.4l-1.91,0h0a106.06,106.06,0,0,1-50.5-13.82L6,218.32l16-54.74A106.21,106.21,0,0,1,114.93,6m0-6A112.22,112.22,0,0,0,15.59,164.26L.24,216.63A6,6,0,0,0,6,224.32a6.26,6.26,0,0,0,1.42-.17l54.25-13.21a112.27,112.27,0,0,0,51.25,13.44h0l2,0A112.21,112.21,0,0,0,195.7,34.32,111.42,111.42,0,0,0,117,0l-2,0Z"/><path class="cls-6" d="M113.51,193.78h0a81.41,81.41,0,0,1-41.3-12.11l-3-1.82-31,7.55,8.78-30-1.89-3.12a81.56,81.56,0,1,1,68.41,39.45Z"/><path class="cls-4" d="M160.81,130.8c-2.51-1.26-14.86-7.33-17.16-8.17s-4-1.26-5.65,1.26-6.49,8.17-7.95,9.84-2.93,1.89-5.44.63-10.6-3.91-20.19-12.46a75.3,75.3,0,0,1-14-17.4c-1.47-2.51-.16-3.87,1.1-5.12s2.51-2.93,3.76-4.4a17.11,17.11,0,0,0,2.52-4.19,4.67,4.67,0,0,0-.21-4.4C97,85.13,92,72.77,89.87,67.75s-4.1-4.24-5.65-4.31-3.13-.09-4.81-.09a9.23,9.23,0,0,0-6.69,3.14c-2.31,2.51-8.79,8.59-8.79,21s9,24.3,10.25,26,17.71,27,42.9,37.92a144,144,0,0,0,14.31,5.29,34.4,34.4,0,0,0,15.82,1c4.82-.72,14.85-6.07,16.95-11.94s2.09-10.89,1.46-11.94S163.32,132.06,160.81,130.8Z"/></g></g></svg>