<?xml version="1.0" encoding="utf-8"?>
<!-- Generator: Adobe Illustrator 26.2.1, SVG Export Plug-In . SVG Version: 6.00 Build 0)  -->
<svg version="1.1" id="Camada_1" xmlns="http://www.w3.org/2000/svg" xmlns:xlink="http://www.w3.org/1999/xlink" x="0px" y="0px"
	 viewBox="0 0 56.7 56.7" style="enable-background:new 0 0 56.7 56.7;" xml:space="preserve">
<style type="text/css">
	.st0{fill:none;stroke:#FFFFFF;stroke-width:3;stroke-miterlimit:10;}
</style>
<g id="Camada_2_00000084498289785750333390000015672824359663802024_">
	<g id="Camada_1-2">
		<path class="st0" d="M7.2,4.8h15.2c0.9,0,1.6,0.7,1.6,1.6V15c0,0.9-0.7,1.6-1.6,1.6H7.2c-0.9,0-1.6-0.7-1.6-1.6V6.5
			C5.6,5.6,6.3,4.8,7.2,4.8z"/>
		<path class="st0" d="M35.1,4.8h13.5c1.3,0,2.4,1.1,2.4,2.4V29c0,1.3-1.1,2.4-2.4,2.4H35.1c-1.3,0-2.4-1.1-2.4-2.4V7.3
			C32.7,5.9,33.8,4.8,35.1,4.8z"/>
		<path class="st0" d="M49.4,51.9H34.3c-0.9,0-1.6-0.7-1.6-1.6v-8.6c0-0.9,0.7-1.6,1.6-1.6h15.2c0.9,0,1.6,0.7,1.6,1.6v8.6
			C51.1,51.1,50.3,51.9,49.4,51.9z"/>
		<path class="st0" d="M21.6,51.9H8c-1.3,0-2.4-1.1-2.4-2.4V27.7c0-1.3,1.1-2.4,2.4-2.4h13.5c1.3,0,2.4,1.1,2.4,2.4v21.8
			C24,50.8,22.9,51.9,21.6,51.9z"/>
	</g>
</g>
</svg>
