<?xml version="1.0" encoding="utf-8"?>
<!-- Generator: Adobe Illustrator 26.2.1, SVG Export Plug-In . SVG Version: 6.00 Build 0)  -->
<svg version="1.1" id="Camada_1" xmlns="http://www.w3.org/2000/svg" xmlns:xlink="http://www.w3.org/1999/xlink" x="0px" y="0px"
	 viewBox="0 0 56.7 56.7" style="enable-background:new 0 0 56.7 56.7;" xml:space="preserve">
<style type="text/css">
	.st0{fill:none;stroke:#FFFFFF;stroke-width:3;stroke-miterlimit:10;}
	.st1{fill:#FFFFFF;}
</style>
<g id="Camada_2_00000171703466282914498350000007047208999019521153_">
	<path class="st0" d="M39.2,48H10.6c-1,0-1.8-0.8-1.8-1.8V17.6c0-1,0.8-1.8,1.8-1.8h28.6c1,0,1.8,0.8,1.8,1.8v28.6
		C41,47.2,40.2,48,39.2,48z"/>
	<path class="st0" d="M41,41h5.2c1,0,1.8-0.8,1.8-1.8l0,0V10.5c0-1-0.8-1.8-1.8-1.8l0,0H17.6c-1,0-1.8,0.8-1.8,1.8c0,0,0,0,0,0v5.2"
		/>
	<polyline class="st0" points="8.3,21.2 24.9,39.8 30.1,34.3 40.2,44.5 	"/>
	<circle class="st1" cx="31.9" cy="24.8" r="3.6"/>
</g>
</svg>
