<?xml version="1.0" encoding="utf-8"?>
<!-- Generator: Adobe Illustrator 26.2.1, SVG Export Plug-In . SVG Version: 6.00 Build 0)  -->
<svg version="1.1" id="Camada_1" xmlns="http://www.w3.org/2000/svg" xmlns:xlink="http://www.w3.org/1999/xlink" x="0px" y="0px"
	 viewBox="0 0 56.7 56.7" style="enable-background:new 0 0 56.7 56.7;" xml:space="preserve">
<style type="text/css">
	.st0{fill:none;stroke:#FFFFFF;stroke-width:3;stroke-miterlimit:10;}
	.st1{fill:none;stroke:#FFFFFF;stroke-width:3;stroke-linejoin:round;}
	.st2{fill:none;stroke:#FFFFFF;stroke-width:3;stroke-linecap:round;stroke-linejoin:round;}
</style>
<g id="Camada_2_00000083074275923276159620000012483334009989932970_">
	<g id="Camada_1-2">
		<path class="st0" d="M23.2,20.1h-5.7l0,0V6.4c0-1.6,1.3-2.9,2.9-2.9l0,0c1.6,0,2.9,1.3,2.9,2.9V20.1L23.2,20.1z"/>
		<path class="st0" d="M38.3,41.9H18.4c-3.1,0-5.6-2.5-5.6-5.6V20.5c0-0.2,0.2-0.4,0.4-0.4h30.1c0.2,0,0.4,0.2,0.4,0.4v15.8
			C43.9,39.4,41.4,41.9,38.3,41.9L38.3,41.9z"/>
		<path class="st1" d="M35.1,46.4H21.6c-0.2,0-0.3-0.1-0.3-0.3v-3.9c0-0.2,0.1-0.3,0.3-0.3h13.6c0.2,0,0.3,0.1,0.3,0.3v3.9
			C35.5,46.3,35.3,46.4,35.1,46.4z"/>
		<path class="st1" d="M30.7,53.2H26c-0.1,0-0.2-0.1-0.2-0.2v-6.3c0-0.1,0.1-0.2,0.2-0.2h4.7c0.1,0,0.2,0.1,0.2,0.2v6.3
			C30.9,53.1,30.8,53.2,30.7,53.2z"/>
		<path class="st0" d="M39.4,20.1h-5.7l0,0V6.4c0-1.6,1.3-2.9,2.9-2.9l0,0c1.6,0,2.9,1.3,2.9,2.9V20.1L39.4,20.1z"/>
		<line class="st2" x1="28.4" y1="25" x2="13.1" y2="25"/>
		<line class="st2" x1="32.9" y1="25" x2="32.7" y2="25"/>
		<line class="st2" x1="43.9" y1="25" x2="37.2" y2="25"/>
	</g>
</g>
</svg>
